<mxfile host="app.diagrams.net" modified="2023-09-13T06:08:21.919Z" agent="Mozilla/5.0 (Windows NT 10.0; Win64; x64) AppleWebKit/537.36 (KHTML, like Gecko) Chrome/116.0.0.0 Safari/537.36" etag="ug_X53GEd55LAM_WRD5E" version="21.7.2" type="google" pages="2">
  <diagram name="Page-1" id="bzrzLufyS2kC9laKiDMv">
    <mxGraphModel grid="1" page="1" gridSize="15" guides="1" tooltips="1" connect="1" arrows="1" fold="1" pageScale="1" pageWidth="850" pageHeight="1100" math="0" shadow="0">
      <root>
        <mxCell id="0" />
        <mxCell id="1" parent="0" />
        <mxCell id="8tVxveZ0391JDxbpSLb5-1" value="AIR Ticket Reservation system" style="ellipse;whiteSpace=wrap;html=1;" vertex="1" parent="1">
          <mxGeometry x="315" y="40" width="130" height="80" as="geometry" />
        </mxCell>
        <mxCell id="8tVxveZ0391JDxbpSLb5-5" value="USER" style="rounded=0;whiteSpace=wrap;html=1;" vertex="1" parent="1">
          <mxGeometry x="70" y="50" width="120" height="60" as="geometry" />
        </mxCell>
        <mxCell id="8tVxveZ0391JDxbpSLb5-7" value="ADMIN" style="rounded=0;whiteSpace=wrap;html=1;" vertex="1" parent="1">
          <mxGeometry x="320" y="200" width="120" height="60" as="geometry" />
        </mxCell>
        <mxCell id="8tVxveZ0391JDxbpSLb5-8" value="AIRLLINES" style="rounded=0;whiteSpace=wrap;html=1;" vertex="1" parent="1">
          <mxGeometry x="550" y="50" width="120" height="60" as="geometry" />
        </mxCell>
        <mxCell id="8tVxveZ0391JDxbpSLb5-16" value="Regrestration NO" style="text;html=1;align=center;verticalAlign=middle;resizable=0;points=[];autosize=1;strokeColor=none;fillColor=none;" vertex="1" parent="1">
          <mxGeometry x="190" y="90" width="120" height="30" as="geometry" />
        </mxCell>
        <mxCell id="8tVxveZ0391JDxbpSLb5-31" value="" style="endArrow=classic;startArrow=classic;html=1;rounded=0;exitX=0.5;exitY=1;exitDx=0;exitDy=0;" edge="1" parent="1" source="8tVxveZ0391JDxbpSLb5-1" target="8tVxveZ0391JDxbpSLb5-7">
          <mxGeometry width="50" height="50" relative="1" as="geometry">
            <mxPoint x="370" y="130" as="sourcePoint" />
            <mxPoint x="460" y="140" as="targetPoint" />
          </mxGeometry>
        </mxCell>
        <mxCell id="8tVxveZ0391JDxbpSLb5-33" value="" style="endArrow=classic;startArrow=classic;html=1;rounded=0;exitX=1;exitY=0.5;exitDx=0;exitDy=0;entryX=0;entryY=0.5;entryDx=0;entryDy=0;" edge="1" parent="1" source="8tVxveZ0391JDxbpSLb5-1" target="8tVxveZ0391JDxbpSLb5-8">
          <mxGeometry width="50" height="50" relative="1" as="geometry">
            <mxPoint x="540" y="240" as="sourcePoint" />
            <mxPoint x="590" y="190" as="targetPoint" />
          </mxGeometry>
        </mxCell>
        <mxCell id="8tVxveZ0391JDxbpSLb5-36" value="" style="endArrow=classic;startArrow=classic;html=1;rounded=0;exitX=1;exitY=0.5;exitDx=0;exitDy=0;entryX=0;entryY=0.5;entryDx=0;entryDy=0;" edge="1" parent="1" source="8tVxveZ0391JDxbpSLb5-5" target="8tVxveZ0391JDxbpSLb5-1">
          <mxGeometry width="50" height="50" relative="1" as="geometry">
            <mxPoint x="540" y="240" as="sourcePoint" />
            <mxPoint x="590" y="190" as="targetPoint" />
          </mxGeometry>
        </mxCell>
        <mxCell id="8tVxveZ0391JDxbpSLb5-44" value="" style="endArrow=classic;html=1;rounded=0;entryX=0.5;entryY=1;entryDx=0;entryDy=0;exitX=0;exitY=1;exitDx=0;exitDy=0;" edge="1" parent="1" source="8tVxveZ0391JDxbpSLb5-1" target="8tVxveZ0391JDxbpSLb5-5">
          <mxGeometry width="50" height="50" relative="1" as="geometry">
            <mxPoint x="540" y="240" as="sourcePoint" />
            <mxPoint x="590" y="190" as="targetPoint" />
            <Array as="points">
              <mxPoint x="140" y="240" />
            </Array>
          </mxGeometry>
        </mxCell>
        <mxCell id="8tVxveZ0391JDxbpSLb5-45" value="tIcket&amp;nbsp; generation" style="text;html=1;align=center;verticalAlign=middle;resizable=0;points=[];autosize=1;strokeColor=none;fillColor=none;" vertex="1" parent="1">
          <mxGeometry x="180" y="200" width="120" height="30" as="geometry" />
        </mxCell>
        <mxCell id="8tVxveZ0391JDxbpSLb5-50" value="LOGIN" style="ellipse;whiteSpace=wrap;html=1;aspect=fixed;" vertex="1" parent="1">
          <mxGeometry x="120" y="502" width="80" height="80" as="geometry" />
        </mxCell>
        <mxCell id="8tVxveZ0391JDxbpSLb5-52" value="Reservation&amp;nbsp;&lt;br&gt;Process" style="ellipse;whiteSpace=wrap;html=1;aspect=fixed;" vertex="1" parent="1">
          <mxGeometry x="300" y="492" width="80" height="80" as="geometry" />
        </mxCell>
        <mxCell id="8tVxveZ0391JDxbpSLb5-54" value="Payment &amp;amp; Details&lt;br&gt;" style="ellipse;whiteSpace=wrap;html=1;aspect=fixed;rotation=-45;" vertex="1" parent="1">
          <mxGeometry x="680" y="562" width="80" height="80" as="geometry" />
        </mxCell>
        <mxCell id="8tVxveZ0391JDxbpSLb5-55" value="Manage Flight Details" style="ellipse;whiteSpace=wrap;html=1;aspect=fixed;rotation=-15;" vertex="1" parent="1">
          <mxGeometry x="80" y="642" width="80" height="80" as="geometry" />
        </mxCell>
        <mxCell id="8tVxveZ0391JDxbpSLb5-58" value="Flight Details" style="text;html=1;align=center;verticalAlign=middle;resizable=0;points=[];autosize=1;strokeColor=none;fillColor=none;rotation=0;" vertex="1" parent="1">
          <mxGeometry x="150" y="602" width="90" height="30" as="geometry" />
        </mxCell>
        <mxCell id="8tVxveZ0391JDxbpSLb5-60" value="Customer Information" style="ellipse;whiteSpace=wrap;html=1;aspect=fixed;" vertex="1" parent="1">
          <mxGeometry x="270" y="722" width="80" height="80" as="geometry" />
        </mxCell>
        <mxCell id="8tVxveZ0391JDxbpSLb5-62" value="" style="endArrow=classic;html=1;rounded=0;exitX=0.738;exitY=0.04;exitDx=0;exitDy=0;exitPerimeter=0;entryX=0.5;entryY=1;entryDx=0;entryDy=0;" edge="1" parent="1" source="8tVxveZ0391JDxbpSLb5-60" target="8tVxveZ0391JDxbpSLb5-52">
          <mxGeometry width="50" height="50" relative="1" as="geometry">
            <mxPoint x="500" y="532" as="sourcePoint" />
            <mxPoint x="550" y="482" as="targetPoint" />
          </mxGeometry>
        </mxCell>
        <mxCell id="8tVxveZ0391JDxbpSLb5-64" value="" style="endArrow=classic;html=1;rounded=0;entryX=0;entryY=0.5;entryDx=0;entryDy=0;" edge="1" parent="1" target="8tVxveZ0391JDxbpSLb5-50">
          <mxGeometry width="50" height="50" relative="1" as="geometry">
            <mxPoint x="40" y="542" as="sourcePoint" />
            <mxPoint x="370" y="482" as="targetPoint" />
          </mxGeometry>
        </mxCell>
        <mxCell id="8tVxveZ0391JDxbpSLb5-66" value="" style="endArrow=classic;startArrow=classic;html=1;rounded=0;exitX=0.5;exitY=0;exitDx=0;exitDy=0;entryX=1.062;entryY=0.246;entryDx=0;entryDy=0;entryPerimeter=0;" edge="1" parent="1" source="8tVxveZ0391JDxbpSLb5-50">
          <mxGeometry width="50" height="50" relative="1" as="geometry">
            <mxPoint x="320" y="532" as="sourcePoint" />
            <mxPoint x="135.57999999999993" y="408.39599999999996" as="targetPoint" />
          </mxGeometry>
        </mxCell>
        <mxCell id="8tVxveZ0391JDxbpSLb5-68" value="" style="endArrow=classic;html=1;rounded=0;exitX=1;exitY=1;exitDx=0;exitDy=0;entryX=-0.02;entryY=0.6;entryDx=0;entryDy=0;entryPerimeter=0;" edge="1" parent="1" source="8tVxveZ0391JDxbpSLb5-98" target="8tVxveZ0391JDxbpSLb5-52">
          <mxGeometry width="50" height="50" relative="1" as="geometry">
            <mxPoint x="320" y="532" as="sourcePoint" />
            <mxPoint x="370" y="482" as="targetPoint" />
          </mxGeometry>
        </mxCell>
        <mxCell id="8tVxveZ0391JDxbpSLb5-69" value="" style="endArrow=classic;html=1;rounded=0;exitX=0.956;exitY=0.306;exitDx=0;exitDy=0;exitPerimeter=0;entryX=0;entryY=1;entryDx=0;entryDy=0;" edge="1" parent="1" source="8tVxveZ0391JDxbpSLb5-55" target="8tVxveZ0391JDxbpSLb5-52">
          <mxGeometry width="50" height="50" relative="1" as="geometry">
            <mxPoint x="320" y="532" as="sourcePoint" />
            <mxPoint x="370" y="482" as="targetPoint" />
          </mxGeometry>
        </mxCell>
        <mxCell id="8tVxveZ0391JDxbpSLb5-70" value="" style="endArrow=classic;startArrow=classic;html=1;rounded=0;exitX=0.5;exitY=1;exitDx=0;exitDy=0;entryX=0.5;entryY=0;entryDx=0;entryDy=0;" edge="1" parent="1" source="8tVxveZ0391JDxbpSLb5-55" target="8tVxveZ0391JDxbpSLb5-99">
          <mxGeometry width="50" height="50" relative="1" as="geometry">
            <mxPoint x="320" y="682" as="sourcePoint" />
            <mxPoint x="130.1618131062287" y="782" as="targetPoint" />
          </mxGeometry>
        </mxCell>
        <mxCell id="8tVxveZ0391JDxbpSLb5-80" value="" style="endArrow=classic;startArrow=classic;html=1;rounded=0;entryX=0.5;entryY=0;entryDx=0;entryDy=0;exitX=0.5;exitY=1;exitDx=0;exitDy=0;" edge="1" parent="1" source="8tVxveZ0391JDxbpSLb5-60" target="8tVxveZ0391JDxbpSLb5-100">
          <mxGeometry width="50" height="50" relative="1" as="geometry">
            <mxPoint x="320" y="772" as="sourcePoint" />
            <mxPoint x="310" y="852" as="targetPoint" />
          </mxGeometry>
        </mxCell>
        <mxCell id="8tVxveZ0391JDxbpSLb5-93" value="" style="endArrow=classic;startArrow=classic;html=1;rounded=0;exitX=0.93;exitY=0.72;exitDx=0;exitDy=0;exitPerimeter=0;entryX=0.5;entryY=0;entryDx=0;entryDy=0;" edge="1" parent="1" source="8tVxveZ0391JDxbpSLb5-52" target="8tVxveZ0391JDxbpSLb5-101">
          <mxGeometry width="50" height="50" relative="1" as="geometry">
            <mxPoint x="320" y="682" as="sourcePoint" />
            <mxPoint x="430" y="582" as="targetPoint" />
          </mxGeometry>
        </mxCell>
        <mxCell id="8tVxveZ0391JDxbpSLb5-94" value="" style="endArrow=classic;html=1;rounded=0;exitX=0;exitY=1;exitDx=0;exitDy=0;" edge="1" parent="1" source="8tVxveZ0391JDxbpSLb5-54">
          <mxGeometry width="50" height="50" relative="1" as="geometry">
            <mxPoint x="320" y="682" as="sourcePoint" />
            <mxPoint x="730" y="712" as="targetPoint" />
          </mxGeometry>
        </mxCell>
        <mxCell id="8tVxveZ0391JDxbpSLb5-95" value="Print" style="text;html=1;align=center;verticalAlign=middle;resizable=0;points=[];autosize=1;strokeColor=none;fillColor=none;" vertex="1" parent="1">
          <mxGeometry x="725" y="667" width="50" height="30" as="geometry" />
        </mxCell>
        <mxCell id="8tVxveZ0391JDxbpSLb5-96" value="" style="endArrow=classic;html=1;rounded=0;exitX=1;exitY=0.5;exitDx=0;exitDy=0;entryX=0;entryY=0;entryDx=0;entryDy=0;" edge="1" parent="1" source="8tVxveZ0391JDxbpSLb5-52" target="8tVxveZ0391JDxbpSLb5-54">
          <mxGeometry width="50" height="50" relative="1" as="geometry">
            <mxPoint x="320" y="682" as="sourcePoint" />
            <mxPoint x="370" y="632" as="targetPoint" />
          </mxGeometry>
        </mxCell>
        <mxCell id="8tVxveZ0391JDxbpSLb5-97" value="Login details" style="text;html=1;align=center;verticalAlign=middle;resizable=0;points=[];autosize=1;strokeColor=none;fillColor=none;" vertex="1" parent="1">
          <mxGeometry x="15" y="508" width="90" height="30" as="geometry" />
        </mxCell>
        <mxCell id="8tVxveZ0391JDxbpSLb5-98" value="1" style="html=1;dashed=0;whiteSpace=wrap;shape=mxgraph.dfd.dataStoreID;align=left;spacingLeft=3;points=[[0,0],[0.5,0],[1,0],[0,0.5],[1,0.5],[0,1],[0.5,1],[1,1]];" vertex="1" parent="1">
          <mxGeometry x="90" y="375" width="100" height="30" as="geometry" />
        </mxCell>
        <mxCell id="8tVxveZ0391JDxbpSLb5-99" value="2" style="html=1;dashed=0;whiteSpace=wrap;shape=mxgraph.dfd.dataStoreID;align=left;spacingLeft=3;points=[[0,0],[0.5,0],[1,0],[0,0.5],[1,0.5],[0,1],[0.5,1],[1,1]];" vertex="1" parent="1">
          <mxGeometry x="80" y="802" width="100" height="30" as="geometry" />
        </mxCell>
        <mxCell id="8tVxveZ0391JDxbpSLb5-100" value="3" style="html=1;dashed=0;whiteSpace=wrap;shape=mxgraph.dfd.dataStoreID;align=left;spacingLeft=3;points=[[0,0],[0.5,0],[1,0],[0,0.5],[1,0.5],[0,1],[0.5,1],[1,1]];" vertex="1" parent="1">
          <mxGeometry x="260" y="870" width="100" height="30" as="geometry" />
        </mxCell>
        <mxCell id="8tVxveZ0391JDxbpSLb5-101" value="4" style="html=1;dashed=0;whiteSpace=wrap;shape=mxgraph.dfd.dataStoreID;align=left;spacingLeft=3;points=[[0,0],[0.5,0],[1,0],[0,0.5],[1,0.5],[0,1],[0.5,1],[1,1]];" vertex="1" parent="1">
          <mxGeometry x="390" y="612" width="100" height="30" as="geometry" />
        </mxCell>
        <mxCell id="8tVxveZ0391JDxbpSLb5-108" value="" style="endArrow=classic;html=1;rounded=0;" edge="1" parent="1" target="8tVxveZ0391JDxbpSLb5-55">
          <mxGeometry width="50" height="50" relative="1" as="geometry">
            <mxPoint x="30" y="772" as="sourcePoint" />
            <mxPoint x="80" y="722" as="targetPoint" />
          </mxGeometry>
        </mxCell>
        <mxCell id="8tVxveZ0391JDxbpSLb5-109" value="" style="endArrow=classic;html=1;rounded=0;entryX=0.94;entryY=0.81;entryDx=0;entryDy=0;entryPerimeter=0;" edge="1" parent="1" target="8tVxveZ0391JDxbpSLb5-60">
          <mxGeometry width="50" height="50" relative="1" as="geometry">
            <mxPoint x="400" y="852" as="sourcePoint" />
            <mxPoint x="450" y="802" as="targetPoint" />
          </mxGeometry>
        </mxCell>
      </root>
    </mxGraphModel>
  </diagram>
  <diagram id="hZ9b3yPaFeapag8IYL3k" name="Page-2">
    <mxGraphModel grid="1" page="1" gridSize="10" guides="1" tooltips="1" connect="1" arrows="1" fold="1" pageScale="1" pageWidth="850" pageHeight="1100" math="0" shadow="0">
      <root>
        <mxCell id="0" />
        <mxCell id="1" parent="0" />
      </root>
    </mxGraphModel>
  </diagram>
</mxfile>
